<?xml version="1.0" encoding="UTF-8" standalone="no"?>
<!-- Created with Inkscape (http://www.inkscape.org/) -->

<svg
   xmlns:dc="http://purl.org/dc/elements/1.1/"
   xmlns:cc="http://creativecommons.org/ns#"
   xmlns:rdf="http://www.w3.org/1999/02/22-rdf-syntax-ns#"
   xmlns:svg="http://www.w3.org/2000/svg"
   xmlns="http://www.w3.org/2000/svg"
   xmlns:sodipodi="http://sodipodi.sourceforge.net/DTD/sodipodi-0.dtd"
   xmlns:inkscape="http://www.inkscape.org/namespaces/inkscape"
   version="1.1"
   width="274"
   height="411.83798"
   id="svg3061"
   inkscape:version="0.48.5 r10040"
   sodipodi:docname="Women's health.svg">
  <sodipodi:namedview
     pagecolor="#ffffff"
     bordercolor="#666666"
     borderopacity="1"
     objecttolerance="10"
     gridtolerance="10"
     guidetolerance="10"
     inkscape:pageopacity="0"
     inkscape:pageshadow="2"
     inkscape:window-width="747"
     inkscape:window-height="565"
     id="namedview9"
     showgrid="false"
     fit-margin-left="8"
     fit-margin-right="8"
     fit-margin-top="5"
     fit-margin-bottom="-12"
     inkscape:zoom="0.77827621"
     inkscape:cx="362.56553"
     inkscape:cy="201.09022"
     inkscape:window-x="0"
     inkscape:window-y="0"
     inkscape:window-maximized="0"
     inkscape:current-layer="svg3061" />
  <metadata
     id="metadata3073">
    <rdf:RDF>
      <cc:Work
         rdf:about="">
        <dc:format>image/svg+xml</dc:format>
        <dc:type
           rdf:resource="http://purl.org/dc/dcmitype/StillImage" />
        <dc:title />
      </cc:Work>
    </rdf:RDF>
  </metadata>
  <defs
     id="defs3071" />
  <g
     transform="translate(6.9999962,3.9999962)"
     id="g3063"
     style="fill:none;stroke:#df2b6a;stroke-width:37.67599869">
    <circle
       cx="130"
       cy="130"
       r="108.312"
       id="circle3065"
       style="stroke-width:41.37599945"
       d="M 238.312,130 C 238.312,189.81906 189.81906,238.312 130,238.312 70.180936,238.312 21.688004,189.81906 21.688004,130 21.688004,70.180936 70.180936,21.688004 130,21.688004 c 59.81906,0 108.312,48.492932 108.312,108.311996 z"
       sodipodi:cx="130"
       sodipodi:cy="130"
       sodipodi:rx="108.312"
       sodipodi:ry="108.312" />
    <path
       d="M 130,250 V 401 M 51.6104,325.6104 h 156.7792"
       id="path3067"
       inkscape:connector-curvature="0" />
  </g>
  <path
     d="m 137.25115,389.70111 c 0.105,-15.18458 0.38693,-19.14261 1.38688,-19.47162 1.04361,-0.34337 1.14058,2.17702 0.57549,14.95854 -1.04866,23.71931 -2.11212,26.16504 -1.96237,4.51308 z m -0.61093,-26.36598 c -0.36754,-0.94685 -1.51738,-1.0656 -4.93727,-0.50987 -2.452,0.39842 -6.5319,0.71034 -9.06645,0.69311 l -4.60825,-0.0313 6.02496,-1.18785 c 3.31375,-0.65331 7.46119,-1.78011 9.21653,-2.50401 l 3.19155,-1.31618 -0.28805,-10.1748 -0.28807,-10.1748 -4.78102,-3.06266 c -9.07737,-5.81479 -11.69343,-9.93746 -11.69343,-18.42781 0,-8.07787 4.62237,-14.73239 12.21599,-17.58656 2.46045,-0.92479 2.53038,-1.1471 2.52739,-8.035 -0.002,-3.89614 -0.26986,-13.44267 -0.59595,-21.21453 l -0.59288,-14.1306 -9.77263,-4.68299 c -11.13166,-5.33418 -17.09003,-10.38722 -20.98151,-17.79349 -3.32467,-6.32753 -3.55306,-14.79719 -0.55118,-20.43935 2.84888,-5.35454 12.67111,-13.87989 21.87477,-18.98653 l 7.90013,-4.38338 -0.59879,-22.42879 c -0.32934,-12.33583 -0.85737,-22.67267 -1.17339,-22.97075 -0.31603,-0.29808 -4.9294,-1.86502 -10.25195,-3.48209 C 105.54846,136.29331 93.37567,130.26684 88.00335,124.9558 80.811555,117.84603 79.045253,108.23951 83.142055,98.51633 86.966683,89.439075 98.34675,83.882145 119.1199,80.948198 l 8.11522,-1.14617 -0.27347,-3.626612 c -0.51916,-6.884593 -5.00319,-30.998383 -8.04367,-43.256533 -1.67737,-6.762629 -2.90837,-12.435491 -2.73553,-12.606362 0.17284,-0.17087 5.24645,1.979581 11.27469,4.778778 6.89476,3.201564 12.17967,5.08945 14.24729,5.08945 3.66848,0 4.43495,0.718975 6.18372,5.800644 0.99654,2.895773 1.0054,6.808345 0.0498,21.982107 -0.63942,10.152625 -0.88476,19.175071 -0.54518,20.049868 0.65834,1.696065 0.17768,1.6976 24.5522,-0.07842 7.79086,-0.567682 7.87216,-0.551178 14.74644,2.992554 15.3284,7.901876 17.31759,10.149927 11.50939,13.007128 -3.70844,1.82427 -22.64889,1.85274 -31.32492,0.0471 -9.48362,-1.973731 -31.18666,-1.792935 -40.55271,0.33784 -16.46452,3.74568 -24.7481,11.79908 -21.65779,21.05599 1.40445,4.20702 6.62216,7.69636 16.83967,11.26157 l 8.04391,2.80675 0,-13.07203 0,-13.07201 2.88015,-0.56947 c 1.5841,-0.3132 5.6308,-0.56946 8.9927,-0.56946 l 6.11252,0 -0.26094,10.25032 c -0.14353,5.63768 -0.61926,23.37076 -1.05717,39.40685 -0.43792,16.03607 -0.61777,29.3439 -0.39964,29.57294 1.48629,1.56076 16.42748,-9.51641 17.85993,-13.24108 1.82586,-4.74761 -3.25912,-12.33047 -10.88187,-16.22739 l -2.6707,-1.36531 0.42491,-7.56985 c 0.23371,-4.16342 0.52844,-7.68848 0.65498,-7.83347 0.42447,-0.48638 12.59047,4.3276 17.18655,6.80058 5.83277,3.13839 11.4376,9.16017 12.696,13.64053 1.34061,4.77297 1.18298,12.79439 -0.33404,16.99889 -3.17699,8.80521 -11.47177,16.17158 -25.80886,22.92011 -4.58918,2.16016 -13.20508,6.20018 -19.14645,8.97786 -16.10252,7.52812 -20.99452,12.0093 -20.99452,19.23132 0,6.11687 2.49634,9.04273 12.87858,15.0945 l 4.63283,2.70047 0,-13.69968 0,-13.69966 5.76032,-2.59382 5.76033,-2.59381 0.33834,2.42223 c 0.1861,1.33222 -0.16953,20.5896 -0.79029,42.79415 -0.62075,22.20455 -0.94464,40.55382 -0.71975,40.77613 0.61407,0.60706 10.40078,-2.74557 13.07927,-4.48056 3.75237,-2.4306 5.4451,-6.58672 4.81723,-11.82763 -0.67197,-5.60898 -3.79933,-10.42753 -9.30429,-14.33581 l -4.19473,-2.97807 0,-5.71418 c 0,-3.14282 0.35215,-5.92934 0.78254,-6.19231 0.98588,-0.60236 12.48393,6.80119 16.57688,10.67378 5.55707,5.25789 7.79861,10.11638 8.25381,17.89002 0.81169,13.86159 -4.86323,19.12454 -27.07066,25.10552 -14.62235,3.93813 -17.89727,6.18678 -17.89727,12.28875 0,3.44835 1.78112,7.01248 4.98152,9.96823 l 2.39169,2.2089 0,-6.43054 c 0,-5.89851 0.17158,-6.47601 2.07373,-6.97995 4.79795,-1.27115 4.62867,-2.16743 3.97886,21.06531 l -0.60526,21.63961 2.23284,-2.60879 c 2.0056,-2.34328 2.22892,-3.43311 2.19439,-10.70847 -0.0211,-4.45482 0.20967,-8.34493 0.5129,-8.64469 0.96841,-0.95736 6.88743,4.16393 8.06741,6.98015 2.76537,6.60005 -0.85284,13.46916 -9.35373,17.7579 -2.34456,1.18285 -4.50895,2.78468 -4.80976,3.5596 -0.67482,1.73853 -2.08784,1.82894 -2.72996,0.17467 z"
     id="path4417"
     style="fill:#003f97;fill-opacity:0.94117647"
     inkscape:connector-curvature="0" />
</svg>
